<?xml version="1.0" standalone="no"?><!DOCTYPE svg PUBLIC "-//W3C//DTD SVG 1.1//EN" "http://www.w3.org/Graphics/SVG/1.1/DTD/svg11.dtd"><svg t="1594883492447" class="icon" viewBox="0 0 1024 1024" version="1.1" xmlns="http://www.w3.org/2000/svg" p-id="12852" xmlns:xlink="http://www.w3.org/1999/xlink" width="200" height="200"><defs><style type="text/css"></style></defs><path d="M512.04516 848.034576c185.584476 0 336.034576-150.450099 336.034575-336.034576S697.629636 175.965424 512.04516 175.965424 176.010584 326.415524 176.010584 512 326.460684 848.034576 512.04516 848.034576z m0 48.004939C299.951841 896.039515 128.005645 724.093319 128.005645 512S299.951841 127.960485 512.04516 127.960485 896.084675 299.906681 896.084675 512 724.138479 896.039515 512.04516 896.039515z" p-id="12853" fill="#515151"></path><path d="M512.04516 512m-230.428225 0a230.428225 230.428225 0 1 0 460.85645 0 230.428225 230.428225 0 1 0-460.85645 0Z" p-id="12854" fill="#515151"></path></svg>