<?xml version="1.0" standalone="no"?><!DOCTYPE svg PUBLIC "-//W3C//DTD SVG 1.1//EN" "http://www.w3.org/Graphics/SVG/1.1/DTD/svg11.dtd"><svg t="1594806564174" class="icon" viewBox="0 0 1024 1024" version="1.1" xmlns="http://www.w3.org/2000/svg" p-id="12062" xmlns:xlink="http://www.w3.org/1999/xlink" width="200" height="200"><defs><style type="text/css"></style></defs><path d="M512 287.483871c-58.322581 0-106.322581 47.483871-106.322581 106.322581 0 58.322581 47.483871 106.322581 106.322581 106.32258 58.322581 0 106.322581-47.483871 106.322581-106.32258 0-58.83871-47.483871-106.322581-106.322581-106.322581z m0-180.129032c-223.483871 0-404.645161 181.16129-404.645161 404.645161 0 223.483871 181.16129 404.645161 404.645161 404.645161 223.483871 0 404.645161-181.16129 404.645161-404.645161 0-223.483871-181.16129-404.645161-404.645161-404.645161z m187.870968 616.774193c-10.83871 0-20.129032-8.774194-20.129033-20.129032 0-91.870968-73.806452-163.612903-168.258064-163.612903s-168.258065 71.741935-168.258065 163.612903c0 10.83871-8.774194 20.129032-20.129032 20.129032-10.83871 0-20.129032-8.774194-20.129032-20.129032 0-55.225806 21.677419-106.83871 61.419355-145.032258 19.612903-18.580645 41.806452-33.032258 66.580645-43.354839-8.258065-5.677419-16-11.870968-23.225807-19.096774-27.354839-27.354839-42.83871-64.516129-42.838709-103.225806 0-39.225806 14.967742-75.870968 42.838709-103.225807 27.354839-27.354839 64.516129-42.83871 103.225807-42.83871 39.225806 0 75.870968 14.967742 103.225806 42.83871 27.354839 27.870968 42.83871 64.516129 42.83871 103.225807 0 39.225806-14.967742 75.870968-42.83871 103.225806-7.225806 7.225806-14.967742 13.419355-23.225806 19.096774 24.774194 9.806452 47.483871 24.258065 66.580645 43.354839 39.225806 38.193548 61.419355 89.806452 61.419355 145.032258 1.032258 10.83871-7.741935 20.129032-19.096774 20.129032z m0 0" p-id="12063" fill="#ED7363"></path></svg>