<?xml version="1.0" standalone="no"?><!DOCTYPE svg PUBLIC "-//W3C//DTD SVG 1.1//EN" "http://www.w3.org/Graphics/SVG/1.1/DTD/svg11.dtd"><svg t="1594884216621" class="icon" viewBox="0 0 1024 1024" version="1.1" xmlns="http://www.w3.org/2000/svg" p-id="16119" xmlns:xlink="http://www.w3.org/1999/xlink" width="200" height="200"><defs><style type="text/css"></style></defs><path d="M512 26.548147768888896c-268.1089900088889 0-485.4518522311111 217.34589667555557-485.4518522311111 485.4518522311111s217.34286222222224 485.4518522311111 485.4518522311111 485.4518522311111c268.1059555555555 0 485.4518522311111-217.34589667555557 485.4518522311111-485.4518522311111S780.1059555555555 26.548147768888896 512 26.548147768888896zM512 948.9066666666668c-241.29991111111113 0-436.9066666666667-195.61282332444443-436.9066666666667-436.9066666666667 0-241.2968766577778 195.60675555555554-436.9066666666667 436.9066666666667-436.9066666666667 241.29384334222223 0 436.9066666666667 195.60979000888887 436.9066666666667 436.9066666666667C948.9066666666668 753.2938433422222 753.2938433422222 948.9066666666668 512 948.9066666666668z" fill="#515151" p-id="16120"></path><path d="M512 512m-266.9985188977778 0a100.12444444444444 100.12444444444444 0 1 0 533.9970366577777 0 100.12444444444444 100.12444444444444 0 1 0-533.9970366577777 0Z" fill="#515151" p-id="16121"></path></svg>