<?xml version="1.0" standalone="no"?><!DOCTYPE svg PUBLIC "-//W3C//DTD SVG 1.1//EN" "http://www.w3.org/Graphics/SVG/1.1/DTD/svg11.dtd"><svg t="1594797033747" class="icon" viewBox="0 0 1024 1024" version="1.1" xmlns="http://www.w3.org/2000/svg" p-id="2898" xmlns:xlink="http://www.w3.org/1999/xlink" width="200" height="200"><defs><style type="text/css"></style></defs><path d="M362.42231856 784.67693076c-2.99155364 0-5.98310726-0.76380093-8.65641051-2.29140278-5.66485687-3.11885378-9.16561112-9.10196105-9.16561112-15.53061884l0.0636501-75.93454211C270.7025573 644.01026013 226.8476541 569.15776933 226.8476541 488.83137191c0-137.54781684 127.93665518-249.50830267 285.1523459-249.50830267s285.1523459 111.89683573 285.1523459 249.50830267-127.93665518 249.50830267-285.1523459 249.50830264c-20.74992518 0-41.43620028-1.9731524-61.48597459-5.79215703-28.45158451 18.52217247-78.73514551 49.51976007-78.73514551 49.51976008-2.86425348 1.71855208-6.11040741 2.60965316-9.35656134 2.60965316z m149.57768144-509.70981829c-137.61146693 0-249.50830267 95.92066637-249.50830267 213.86425944 0 70.71523579 40.7360494 136.78401593 109.03258228 176.69261432 5.47390664 3.18250386 8.84736074 9.10196105 8.84736073 15.46696876l-0.06365008 53.78431525c18.58582254-11.58431406 42.39095141-26.54208219 56.71221879-36.08959379 4.00995487-2.67330325 8.97466089-3.56440432 13.62111653-2.54600308 19.92247417 4.32820525 40.60874926 6.49230787 61.35867442 6.49230786 137.54781684 0 249.50830267-95.92066637 249.50830267-213.86425941 0-117.879943-111.96048581-213.80060933-249.50830267-213.80060935z" fill="#333333" p-id="2899"></path><path d="M369.36017696 486.8582195m-35.58039314 0a35.58039317 35.58039317 0 1 0 71.16078631 0 35.58039317 35.58039317 0 1 0-71.16078631 0Z" fill="#333333" p-id="2900"></path><path d="M511.68174961 486.8582195m-35.58039316 0a35.58039317 35.58039317 0 1 0 71.16078633 0 35.58039317 35.58039317 0 1 0-71.16078633 0Z" fill="#333333" p-id="2901"></path><path d="M654.63982304 486.8582195m-35.58039317 0a35.58039317 35.58039317 0 1 0 71.16078631 0 35.58039317 35.58039317 0 1 0-71.16078631 0Z" fill="#333333" p-id="2902"></path></svg>