<?xml version="1.0" standalone="no"?><!DOCTYPE svg PUBLIC "-//W3C//DTD SVG 1.1//EN" "http://www.w3.org/Graphics/SVG/1.1/DTD/svg11.dtd"><svg t="1594889100558" class="icon" viewBox="0 0 1198 1024" version="1.1" xmlns="http://www.w3.org/2000/svg" p-id="25639" xmlns:xlink="http://www.w3.org/1999/xlink" width="233.984375" height="200"><defs><style type="text/css"></style></defs><path d="M1184.768107 723.408628H975.641643V514.298118a13.098324 13.098324 0 0 0-13.066415-13.066416h-52.265662a13.098324 13.098324 0 0 0-13.066416 13.066416v209.11051H688.116686a13.114278 13.114278 0 0 0-13.066415 13.082369v52.281616a13.098324 13.098324 0 0 0 13.066415 13.066416h209.126464v209.094556a13.098324 13.098324 0 0 0 13.066416 13.066415h52.281616a13.098324 13.098324 0 0 0 13.066415-13.066415V801.823075h209.11051a13.098324 13.098324 0 0 0 13.066416-13.066416v-52.281616a13.114278 13.114278 0 0 0-13.066416-13.08237zM368.539924 78.415899c75.797973 0 147.687189 29.403423 202.617187 82.339158l27.441068 26.786949 27.441068-26.786949a290.731733 290.731733 0 0 1 202.617188-82.339158c160.099486 0 290.795549 130.696063 290.795549 290.795549 0 23.516357-4.578829 47.702787-13.066416 73.181499 0 0-3.924711 11.758179-3.924711 18.299364a39.326879 39.326879 0 0 0 39.199247 39.2152c18.953482 0 32.674016-18.953482 38.561082-32.019897 5.169131-11.758179 18.267455-66.00215 18.267455-98.660212C1198.488641 165.333886 1033.156207 0.001452 829.262691 0.001452A366.386119 366.386119 0 0 0 599.236343 80.378254 366.354211 366.354211 0 0 0 369.22595 0.001452C165.332434 0.001452 0 165.333886 0 369.227402c0 260.051981 425.416323 561.983498 554.804149 647.593249a9.412924 9.412924 0 0 0 1.962356 1.308237s13.066415 5.871112 20.261718 5.871112a39.326879 39.326879 0 0 0 39.215201-39.215201 37.891009 37.891009 0 0 0-18.299363-32.674015c-162.731914-104.563232-520.821897-376.4053-520.821897-582.899336 0.654118-160.099486 131.366136-290.795549 291.465622-290.795549z m0 0" p-id="25640" fill="#ffffff"></path></svg>