<?xml version="1.0" standalone="no"?><!DOCTYPE svg PUBLIC "-//W3C//DTD SVG 1.1//EN" "http://www.w3.org/Graphics/SVG/1.1/DTD/svg11.dtd"><svg t="1594807193468" class="icon" viewBox="0 0 1024 1024" version="1.1" xmlns="http://www.w3.org/2000/svg" p-id="14249" xmlns:xlink="http://www.w3.org/1999/xlink" width="200" height="200"><defs><style type="text/css"></style></defs><path d="M597.504 113.664c-173.056 0-312.832 140.288-312.832 312.832 0 73.216 25.6 143.872 72.192 200.192l-72.192 72.192-93.696-93.696c-11.264-10.752-28.672-10.752-39.424 0-11.264 10.752-11.776 28.672-0.512 40.448l93.696 93.696-122.368 122.368-0.512 0.512c-10.752 11.264-10.752 29.184 0.512 40.448 11.264 10.752 29.184 10.752 40.448-0.512l122.368-122.368L378.88 873.472c11.264 10.752 28.672 10.752 39.424 0 11.264-10.752 11.776-28.672 0.512-40.448l-93.696-93.696 72.192-72.704c54.272 45.056 123.904 72.704 200.192 72.704 173.056 0 312.832-140.288 312.832-312.832s-140.288-312.832-312.832-312.832z m0 568.832c-141.312 0-256-114.688-256-256s114.688-256 256-256 256 114.688 256 256-114.688 256-256 256z" p-id="14250" fill="#d4237a"></path></svg>