<?xml version="1.0" standalone="no"?><!DOCTYPE svg PUBLIC "-//W3C//DTD SVG 1.1//EN" "http://www.w3.org/Graphics/SVG/1.1/DTD/svg11.dtd"><svg t="1596099127884" class="icon" viewBox="0 0 1024 1024" version="1.1" xmlns="http://www.w3.org/2000/svg" p-id="17532" xmlns:xlink="http://www.w3.org/1999/xlink" width="200" height="200"><defs><style type="text/css"></style></defs><path d="M936.9 151.6c12.9 0 23.4 9.4 23.4 21.1 0 10.4-8.3 19-19.2 20.8l-4.2 0.3H86.7c-12.9 0-23.4-9.4-23.4-21.1 0-10.4 8.3-19 19.2-20.8l4.2-0.3h850.2zM608.2 480.9c16.8 0 30.4 9.4 30.4 21.1 0 10.4-10.7 19-24.9 20.8l-5.5 0.3H93.7c-16.8 0-30.4-9.4-30.4-21.1 0-10.4 10.7-19 24.9-20.8l5.5-0.3h514.5zM442 810.1c11.7 0 21.1 9.4 21.1 21.1 0 10.4-7.5 19-17.3 20.8l-3.8 0.3H84.4c-11.7 0-21.1-9.4-21.1-21.1 0-10.4 7.5-19 17.3-20.8l3.8-0.3H442z m327.6-90c-14-25.1-67.4-26.1-119.6 5.2-52.6 31.5-79.1 81.1-64.7 106.9 14 25.1 67.4 26.1 119.6-5.2 52.6-31.5 79.1-81.1 64.7-106.9zM780.9 356c2.9-17.1 25.3-23.9 37.1-9.6 25.9 31.6 47.5 52.8 64 63.6 15.6 10.2 35.2 16.4 59.1 18.4 11.6 1 20.2 11.2 19.2 22.8-1 11.6-11.2 20.2-22.8 19.2-26.7-2.3-50.1-8.9-70.2-20.1l-8.4-5-6.4-4.4c-6.5-4.7-13.3-10.3-20.4-16.9l-9.5-9.2v342.9l-0.3 3.8c-9.3 35.9-58.5 79.2-95.8 101.6-70 42-149.8 40.6-178.2-10.4-28-50.3 10.3-121.9 79.9-163.6 54.4-32.6 114.8-39 152.3-16.3l-0.1-313 0.5-3.8z" p-id="17533" fill="#515151"></path></svg>