<?xml version="1.0" standalone="no"?><!DOCTYPE svg PUBLIC "-//W3C//DTD SVG 1.1//EN" "http://www.w3.org/Graphics/SVG/1.1/DTD/svg11.dtd"><svg t="1594797124698" class="icon" viewBox="0 0 1024 1024" version="1.1" xmlns="http://www.w3.org/2000/svg" p-id="6191" xmlns:xlink="http://www.w3.org/1999/xlink" width="200" height="200"><defs><style type="text/css"></style></defs><path d="M145.7 485.5c8.1 0 14.6-6.6 14.6-14.6V354.7c0-48.5 39.5-88 88-88h597.5L765.3 350c-5.6 5.8-5.5 15.1 0.4 20.7 2.8 2.8 6.5 4.1 10.2 4.1 3.8 0 7.7-1.5 10.5-4.5L891.1 262c5.5-5.7 5.5-14.7 0-20.4L783.7 131.4c-5.7-5.8-14.9-5.9-20.7-0.3-5.8 5.6-5.9 14.9-0.3 20.7l83.4 85.6H248.3c-64.6 0-117.2 52.6-117.2 117.3v116.1c0 8.1 6.5 14.7 14.6 14.7zM880.6 540.2c-8.1 0-14.6 6.6-14.6 14.6V671c0 48.5-39.5 88-88 88H180.5l80.5-83.3c5.6-5.8 5.5-15.1-0.4-20.7-5.8-5.6-15.1-5.5-20.7 0.3L138.7 760.1c-5.3 2.2-9.1 7.4-9.1 13.5 0 5.6 3.2 10.2 7.8 12.7l105.2 107.9c2.9 2.9 6.7 4.4 10.5 4.4 3.7 0 7.4-1.4 10.2-4.2 5.8-5.6 5.9-14.9 0.3-20.7l-83.4-85.6H778c64.6 0 117.2-52.6 117.2-117.3V554.9c0.1-8.1-6.5-14.7-14.6-14.7z" fill="#FFFFFF" p-id="6192"></path></svg>