<?xml version="1.0" standalone="no"?><!DOCTYPE svg PUBLIC "-//W3C//DTD SVG 1.1//EN" "http://www.w3.org/Graphics/SVG/1.1/DTD/svg11.dtd"><svg t="1594797053756" class="icon" viewBox="0 0 1024 1024" version="1.1" xmlns="http://www.w3.org/2000/svg" p-id="3621" xmlns:xlink="http://www.w3.org/1999/xlink" width="200" height="200"><defs><style type="text/css"></style></defs><path d="M511.845481 959.318862c-247.143797 0-447.52557-200.341864-447.52557-447.485661 0-247.15096 200.381773-447.492824 447.52557-447.492824 247.151983 0 447.493847 200.341864 447.493847 447.492824C959.339328 758.976998 758.997464 959.318862 511.845481 959.318862M511.845481 120.247688c-216.250182 0-391.577327 175.327144-391.577327 391.58449 0 216.250182 175.327144 391.577327 391.577327 391.577327 216.258369 0 391.545604-175.328168 391.545604-391.577327C903.391085 295.575856 728.10385 120.247688 511.845481 120.247688M707.622376 581.743434c-30.893614 0-55.95643-25.022906-55.95643-55.916521 0-30.885428 25.062815-55.948243 55.95643-55.948243 30.886451 0 55.949266 25.062815 55.949266 55.948243C763.571642 556.720527 738.507804 581.743434 707.622376 581.743434M511.845481 581.743434c-30.886451 0-55.948243-25.022906-55.948243-55.916521 0-30.885428 25.062815-55.948243 55.948243-55.948243 30.893614 0 55.916521 25.062815 55.916521 55.948243C567.762001 556.720527 542.740118 581.743434 511.845481 581.743434M330.037738 581.743434c-30.894637 0-55.95643-25.022906-55.95643-55.916521 0-30.885428 25.062815-55.948243 55.95643-55.948243 30.886451 0 55.948243 25.062815 55.948243 55.948243C385.987005 556.720527 360.924189 581.743434 330.037738 581.743434" p-id="3622" fill="#333333"></path></svg>