<?xml version="1.0" standalone="no"?><!DOCTYPE svg PUBLIC "-//W3C//DTD SVG 1.1//EN" "http://www.w3.org/Graphics/SVG/1.1/DTD/svg11.dtd"><svg t="1594797075255" class="icon" viewBox="0 0 1024 1024" version="1.1" xmlns="http://www.w3.org/2000/svg" p-id="4547" xmlns:xlink="http://www.w3.org/1999/xlink" width="200" height="200"><defs><style type="text/css"></style></defs><path d="M854.73596622 420.48733555h-540.6145752l543.3440625-184.39007169a65.15550263 65.15550263 0 0 0 43.31079931-80.72238515l-13.92919014-46.85913282a64.98821162 64.98821162 0 0 0-80.87206641-43.80386836l-0.44904462 0.13207237L150.23769277 287.21791865a65.15550263 65.15550263 0 0 0-43.31079931 80.72238516l13.92918925 46.85913281a64.93538232 64.93538232 0 0 0 21.66860742 32.0934876 64.68004336 64.68004336 0 0 0-12.75815214 38.63545137v411.43938925a65.15550263 65.15550263 0 0 0 65.03223516 65.03223516h659.93719306a65.15550263 65.15550263 0 0 0 65.03223515-65.03223516v-411.44819414a65.15550263 65.15550263 0 0 0-65.03223515-65.03223515z m16.43855712 65.03223515v65.32279365H680.60348281l66.03598213-81.76135078h108.09650127a16.4561669 16.4561669 0 0 1 16.44736202 16.43855713z m-676.36694531-16.43855713h165.38931914l-72.58675167 72.58675166a24.20438906 24.20438906 0 0 0-5.76714287 9.17459912H178.36902089v-65.32279365a16.4561669 16.4561669 0 0 1 16.43855713-16.43855713z m229.0127871 5.10678281a24.3100459 24.3100459 0 0 0 3.9005253-5.10678281h256.45734053l-60.17198731 74.49739278a24.25721748 24.25721748 0 0 0-4.04140166 7.263958H347.16579629zM164.58070801 333.64561661l0.44904462-0.13207149 655.13857764-222.32114033a16.39453359 16.39453359 0 0 1 20.09254835 11.17328818l13.92919013 46.85913281A16.4561669 16.4561669 0 0 1 843.1136334 189.66956592l-0.44904551 0.13207148L187.53481513 412.11397286a16.38572871 16.38572871 0 0 1-20.09254833-11.17328819l-13.92918927-46.85913282a16.4561669 16.4561669 0 0 1 11.06763047-20.43593524z m690.15525821 579.75190048H194.80757802a16.4561669 16.4561669 0 0 1-16.43855713-16.43855712V599.44484815h692.81430733v297.51411182a16.4561669 16.4561669 0 0 1-16.447362 16.43855712z" p-id="4548" fill="#333333"></path></svg>