<?xml version="1.0" standalone="no"?><!DOCTYPE svg PUBLIC "-//W3C//DTD SVG 1.1//EN" "http://www.w3.org/Graphics/SVG/1.1/DTD/svg11.dtd"><svg t="1594797119630" class="icon" viewBox="0 0 1024 1024" version="1.1" xmlns="http://www.w3.org/2000/svg" p-id="6011" xmlns:xlink="http://www.w3.org/1999/xlink" width="200" height="200"><defs><style type="text/css"></style></defs><path d="M804.61568066 809.08195942h-17.10414562a12.72629887 12.72629887 0 0 1-12.72629887-12.72629946V227.24829672a12.72629887 12.72629887 0 0 1 12.72629887-12.72629886H804.61568066a12.72629887 12.72629887 0 0 1 12.72629945 12.72629887v569.10736322a12.72629887 12.72629887 0 0 1-12.72629944 12.72629948z m-100.58866695-249.51181772L335.74064797 812.16172352C227.99980107 836.46895464 208.42675309 767.74694012 208.24858518 742.00163714c-0.58540985-85.11348732-2.9397749-231.45319962 0-463.07184032C209.35577311 191.51284879 297.68901431 197.91417725 335.74064797 222.79409197L704.02701371 461.34856603c38.03890743 24.87991473 38.03890743 73.34166094-1e-8 98.22157567z m-56.67020916-84.18446791l-325.79325354-210.49298475c-26.20344986-16.51873576-45.38198213-25.14716689-70.82185364 0v491.14605587c5.8922766 23.56910584 44.61840437 30.5431173 70.82185364 14.02438153l325.79325354-224.51736628c43.4221322-32.04482093 43.4221322-44.16025748 0-70.16008636z" p-id="6012" fill="#FFFFFF"></path></svg>