<?xml version="1.0" standalone="no"?><!DOCTYPE svg PUBLIC "-//W3C//DTD SVG 1.1//EN" "http://www.w3.org/Graphics/SVG/1.1/DTD/svg11.dtd"><svg t="1594797997480" class="icon" viewBox="0 0 1024 1024" version="1.1" xmlns="http://www.w3.org/2000/svg" p-id="8995" xmlns:xlink="http://www.w3.org/1999/xlink" width="200" height="200"><defs><style type="text/css"></style></defs><path d="M565.333333 202.261333c0 11.776-9.578667 21.333333-21.333333 21.333334h-405.333333a21.333333 21.333333 0 1 1 0-42.666667h405.333333c11.754667 0 21.333333 9.557333 21.333333 21.333333zM565.333333 408.768c0 11.776-9.578667 21.333333-21.333333 21.333333h-405.333333a21.333333 21.333333 0 1 1 0-42.666666h405.333333a21.333333 21.333333 0 0 1 21.333333 21.333333zM565.333333 615.253333a21.333333 21.333333 0 0 1-21.333333 21.333334h-405.333333a21.333333 21.333333 0 1 1 0-42.666667h405.333333c11.754667 0 21.333333 9.557333 21.333333 21.333333zM762.965333 735.573333a21.333333 21.333333 0 0 1-21.333333-21.333333V223.594667a21.333333 21.333333 0 1 1 42.666667 0V714.24a21.333333 21.333333 0 0 1-21.333334 21.333333zM906.666667 821.76a21.333333 21.333333 0 0 1-21.333334 21.333333h-746.666666a21.333333 21.333333 0 1 1 0-42.666666h746.666666a21.333333 21.333333 0 0 1 21.333334 21.333333z" p-id="8996" fill="#FFFFFF"></path><path d="M889.877333 589.952a21.312 21.312 0 0 1 0 30.165333l-111.829333 111.829334a21.312 21.312 0 1 1-30.165333-30.165334l111.829333-111.829333a21.333333 21.333333 0 0 1 30.165333 0z" p-id="8997" fill="#FFFFFF"></path><path d="M636.032 589.952a21.312 21.312 0 0 0 0 30.165333l111.829333 111.829334a21.312 21.312 0 1 0 30.165334-30.165334l-111.829334-111.829333a21.333333 21.333333 0 0 0-30.165333 0z" p-id="8998" fill="#FFFFFF"></path></svg>