<?xml version="1.0" standalone="no"?><!DOCTYPE svg PUBLIC "-//W3C//DTD SVG 1.1//EN" "http://www.w3.org/Graphics/SVG/1.1/DTD/svg11.dtd"><svg t="1594797098494" class="icon" viewBox="0 0 1024 1024" version="1.1" xmlns="http://www.w3.org/2000/svg" p-id="5470" xmlns:xlink="http://www.w3.org/1999/xlink" width="200" height="200"><defs><style type="text/css"></style></defs><path d="M510.04395 958.772416c-60.454884 0-119.114888-11.845793-174.348863-35.207873-53.338812-22.559808-101.237729-54.853305-142.364405-95.979981-41.127699-41.127699-73.421196-89.026616-95.981005-142.366452-23.363104-55.236022-35.208896-113.89705-35.208896-174.355003 0-60.45693 11.845793-119.117958 35.208896-174.35398 22.560832-53.339836 54.853305-101.238752 95.981005-142.366452s89.026616-73.421196 142.364405-95.982028c55.234999-23.363104 113.89398-35.208896 174.348863-35.208896 60.458977 0 119.120005 11.845793 174.35705 35.208896 53.339836 22.560832 101.238752 54.853305 142.365428 95.982028 41.127699 41.127699 73.420173 89.026616 95.981005 142.366452 23.361057 55.236022 35.20685 113.89705 35.20685 174.35398 0 60.458977-11.845793 119.120005-35.20685 174.355003-22.560832 53.339836-54.853305 101.239775-95.981005 142.366452-41.126676 41.126676-89.025593 73.420173-142.366451 95.979981-55.236022 23.362081-113.89705 35.207873-174.356027 35.207873z m0-849.771886c-221.583654 0-401.854391 180.273806-401.854391 401.861554s180.27176 401.860531 401.854391 401.86053c221.586724 0 401.861554-180.273806 401.861554-401.86053 0-221.587748-180.27483-401.861554-401.861554-401.861554z" fill="#FFFFFF" p-id="5471"></path><path d="M424.668491 687.758979c-12.841469 0-25.684986-12.841469-25.684986-25.687032V359.64915c0-12.842493 12.841469-25.684986 25.684986-25.684986 12.843516 0 25.686009 12.842493 25.686009 25.684986V662.071947c0 12.844539-6.423293 25.687032-25.686009 25.687032zM595.426573 687.758979c-12.842493 0-25.687032-12.841469-25.687032-25.687032V359.64915c0-12.842493 12.842493-25.684986 25.687032-25.684986 12.843516 0 25.684986 12.842493 25.684985 25.684986V662.071947c0 12.844539-6.423293 25.687032-25.684985 25.687032z" fill="#FFFFFF" p-id="5472"></path></svg>