<?xml version="1.0" standalone="no"?><!DOCTYPE svg PUBLIC "-//W3C//DTD SVG 1.1//EN" "http://www.w3.org/Graphics/SVG/1.1/DTD/svg11.dtd"><svg t="1594797110792" class="icon" viewBox="0 0 1024 1024" version="1.1" xmlns="http://www.w3.org/2000/svg" p-id="5651" xmlns:xlink="http://www.w3.org/1999/xlink" width="200" height="200"><defs><style type="text/css"></style></defs><path d="M512 967.111111c251.363556 0 455.111111-203.747556 455.111111-455.111111S763.363556 56.888889 512 56.888889 56.888889 260.636444 56.888889 512s203.747556 455.111111 455.111111 455.111111z m0 56.888889C229.233778 1024 0 794.766222 0 512S229.233778 0 512 0s512 229.233778 512 512-229.233778 512-512 512z m219.249778-453.262222l-261.603556 174.421333a56.888889 56.888889 0 0 1-88.462222-47.331555V349.013333a56.888889 56.888889 0 0 1 88.462222-47.331555l261.603556 174.392889a56.888889 56.888889 0 0 1 0 94.663111z m-31.573334-47.331556l-261.603555-174.392889v348.814223L699.733333 523.377778z" p-id="5652" fill="#FFFFFF"></path></svg>