<?xml version="1.0" standalone="no"?><!DOCTYPE svg PUBLIC "-//W3C//DTD SVG 1.1//EN" "http://www.w3.org/Graphics/SVG/1.1/DTD/svg11.dtd"><svg t="1594864199708" class="icon" viewBox="0 0 1024 1024" version="1.1" xmlns="http://www.w3.org/2000/svg" p-id="1619" xmlns:xlink="http://www.w3.org/1999/xlink" width="200" height="200"><defs><style type="text/css"></style></defs><path d="M512 64C264.704 64 64 264.704 64 512s200.704 448 448 448 448-200.704 448-448S759.296 64 512 64L512 64 512 64M512 931.328C279.04 931.328 92.672 744.96 92.672 512S279.04 92.671 512 92.671 931.328 279.04 931.328 512 744.96 931.328 512 931.328L512 931.328 512 931.328M705.536 504.832 408.064 332.8c-3.584-3.584-7.168-3.584-10.753 0-3.583 0-7.167 3.584-7.167 7.168l0 344.063c0 3.584 3.584 7.168 3.584 7.168 3.583 3.584 7.167 3.584 10.752 0l301.056-172.032c3.584-3.584 3.584-3.584 3.584-7.168C712.704 508.416 709.12 504.832 705.536 504.832L705.536 504.832 705.536 504.832M705.536 504.832" p-id="1620" fill="#FFFFFF"></path></svg>