<?xml version="1.0" standalone="no"?><!DOCTYPE svg PUBLIC "-//W3C//DTD SVG 1.1//EN" "http://www.w3.org/Graphics/SVG/1.1/DTD/svg11.dtd"><svg t="1594797128396" class="icon" viewBox="0 0 1024 1024" version="1.1" xmlns="http://www.w3.org/2000/svg" p-id="6371" xmlns:xlink="http://www.w3.org/1999/xlink" width="200" height="200"><defs><style type="text/css"></style></defs><path d="M434.7 378.3V294C339.5 228.6 180.5 233.2 0.3 233.2v62c198 0.1 367.1-23.5 434.4 83.1z" p-id="6372" fill="#FFFFFF"></path><path d="M838.1 295.1v93.3l186.2-124.1-186.2-124.2v93.1c-267.9-0.4-372.4-1.3-372.4 279.2 0 257-208.4 217.2-465.5 217.2v62c291.3 0 527.5 12.1 527.5-279.2 0.1-246.1 77.8-220 310.4-217.3zM838.1 730c-144.2 1.7-229.5 12.2-272.8-38.9-2.3-2.7-4.4-5.5-6.5-8.6v79.1c1.1 0.6 2.2 1.1 3.4 1.7 59.7 28.9 149.9 28.6 275.9 28.4v93.1l186.2-124.1-186.2-124.1V730z" p-id="6373" fill="#FFFFFF"></path></svg>