<?xml version="1.0" standalone="no"?><!DOCTYPE svg PUBLIC "-//W3C//DTD SVG 1.1//EN" "http://www.w3.org/Graphics/SVG/1.1/DTD/svg11.dtd"><svg t="1594796951024" class="icon" viewBox="0 0 1024 1024" version="1.1" xmlns="http://www.w3.org/2000/svg" p-id="1586" xmlns:xlink="http://www.w3.org/1999/xlink" width="200" height="200"><defs><style type="text/css"></style></defs><path d="M996.489413 938.940721l-256.307723-251.858795c67.934435-74.572519 108.080719-170.965973 108.080719-276.680992C848.262409 183.470263 662.996308 0.040228 431.404855 0.040228 202.92059-3.06696 17.65449 180.363075 17.65449 407.293746c0 226.96598 185.266101 410.396015 416.857554 410.396014 98.794463 0 191.445168-34.21438 262.451482-93.286266l256.272414 254.930675a33.437583 33.437583 0 0 0 46.325353 0c9.250947-9.321565 9.250947-27.964694-3.07188-40.393448z m-561.977369-180.322847c-194.552357 0-352.030308-155.465341-352.030308-348.21694 0-192.7516 157.477951-351.28882 352.030308-351.28882 194.517048 0 351.994999 155.430032 351.994998 348.181632 0 192.7516-157.477951 351.324129-351.994998 351.324128z" fill="#333333" p-id="1587"></path></svg>