<?xml version="1.0" standalone="no"?><!DOCTYPE svg PUBLIC "-//W3C//DTD SVG 1.1//EN" "http://www.w3.org/Graphics/SVG/1.1/DTD/svg11.dtd"><svg t="1594797063270" class="icon" viewBox="0 0 1024 1024" version="1.1" xmlns="http://www.w3.org/2000/svg" p-id="3981" xmlns:xlink="http://www.w3.org/1999/xlink" width="200" height="200"><defs><style type="text/css"></style></defs><path d="M817.889759 891.219881c-74.339102 30.858822-97.344049 66.242703-227.137137 0-100.243075-51.170426-157.920706-48.120974-210.964806-38.654368l185.40978-220.992183c0.411369 0.002047 0.807389 0.061398 1.218758 0.061398 156.805302 0 283.921421-127.115096 283.921421-283.921421 0-156.805302-127.116119-283.921421-283.921421-283.921421-156.806325 0-283.921421 127.116119-283.921421 283.921421 0 51.659567 14.015202 99.951433 38.125319 141.683906L194.60828 779.955798c-24.952298 58.617026-38.467103 117.80301 23.573905 148.077523 22.916942 11.190877 45.548382 13.996782 67.150376 8.312316l-2.836605 3.546779c0 0 118.369921-71.937402 292.03317 0 145.254222 60.159148 259.585153-32.448016 259.585153-32.448016S875.451756 867.322611 817.889759 891.219881zM566.416354 112.464421c129.922025 0 235.248885 105.32686 235.248885 235.248885S696.338379 582.962192 566.416354 582.962192 331.167468 477.635331 331.167468 347.713306 436.493306 112.464421 566.416354 112.464421zM250.046916 891.219881c-5.02955-2.90312-55.535851-7.560186-32.448016-64.896032l142.159744-284.33279c38.390355 40.821731 88.587618 70.300113 145.286967 82.809007L314.942949 858.771865C283.532565 890.182248 254.199493 893.605208 250.046916 891.219881z" p-id="3982" fill="#333333"></path></svg>