<?xml version="1.0" standalone="no"?><!DOCTYPE svg PUBLIC "-//W3C//DTD SVG 1.1//EN" "http://www.w3.org/Graphics/SVG/1.1/DTD/svg11.dtd"><svg t="1594797115734" class="icon" viewBox="0 0 1024 1024" version="1.1" xmlns="http://www.w3.org/2000/svg" p-id="5831" xmlns:xlink="http://www.w3.org/1999/xlink" width="200" height="200"><defs><style type="text/css"></style></defs><path d="M201.701053 1004.651789a25.195789 25.195789 0 0 0 35.624421-35.624421L151.713684 883.496421h491.142737c207.171368 0 345.815579-153.761684 345.815579-345.842526v-141.123369a25.007158 25.007158 0 1 0-50.041263 0v77.608421c-4.392421 233.579789-120.778105 359.316211-347.082105 359.316211H151.713684l85.557895-85.584842a25.195789 25.195789 0 0 0-35.597474-35.597474l-126.922105 126.922105c-5.982316 6.197895-8.704 12.503579-8.704 19.267369 0 6.736842 2.721684 13.069474 7.545263 17.839158 0.377263 0.458105 43.061895 43.223579 128.080842 128.350315z m325.685894-658.83621c-11.317895 0-28.564211-0.431158-51.307789-1.266526a25.007158 25.007158 0 1 0 0 50.041263h26.300631V678.804211a25.061053 25.061053 0 0 0 50.041264 0V370.849684a25.007158 25.007158 0 0 0-25.034106-25.034105z m428.193685-162.492632a24.899368 24.899368 0 0 0 7.464421-17.785263 26.354526 26.354526 0 0 0-8.084211-18.647579L827.418947 19.321263a25.168842 25.168842 0 1 0-35.570526 35.624421l85.530947 85.557895H386.236632C179.092211 140.503579 40.421053 294.265263 40.421053 485.888v141.608421a25.061053 25.061053 0 0 0 50.041263 0c-0.458105-41.633684-0.458105-63.568842 0-65.778526C91.001263 320.538947 207.494737 190.517895 437.571368 190.517895H877.406316l-22.986105 23.013052-62.544843 62.57179a25.168842 25.168842 0 1 0 35.570527 35.570526l128.161684-128.377263z" fill="#FFFFFF" p-id="5832"></path></svg>