<?xml version="1.0" standalone="no"?><!DOCTYPE svg PUBLIC "-//W3C//DTD SVG 1.1//EN" "http://www.w3.org/Graphics/SVG/1.1/DTD/svg11.dtd"><svg t="1596096855608" class="icon" viewBox="0 0 1026 1024" version="1.1" xmlns="http://www.w3.org/2000/svg" p-id="6344" xmlns:xlink="http://www.w3.org/1999/xlink" width="200.390625" height="200"><defs><style type="text/css"></style></defs><path d="M774.4 1004.8c-14.933 0-29.867-4.267-44.8-10.667L516.267 887.467 300.8 994.133c-12.8 6.4-29.867 10.667-44.8 10.667-21.333 0-40.533-6.4-57.6-19.2-29.867-23.467-44.8-61.867-38.4-98.133L204.8 659.2 36.267 501.333c-25.6-25.6-36.267-64-25.6-100.266v-2.134c12.8-36.266 42.666-61.866 78.933-68.266L324.267 288 428.8 74.667C445.867 40.533 480 19.2 516.267 19.2c38.4 0 72.533 23.467 87.466 55.467L708.267 288l234.666 40.533c36.267 6.4 68.267 32 78.934 68.267 10.666 36.267 2.133 74.667-23.467 100.267L829.867 654.933 872.533 883.2c6.4 36.267-8.533 74.667-38.4 96-19.2 19.2-40.533 25.6-59.733 25.6zM514.133 823.467l238.934 119.466c6.4 4.267 14.933 6.4 21.333 6.4 8.533 0 17.067-2.133 21.333-8.533h2.134c12.8-10.667 19.2-25.6 17.066-42.667L765.867 640l189.866-179.2C966.4 448 970.667 430.933 966.4 416v-2.133c-4.267-14.934-17.067-25.6-32-27.734h-2.133l-262.4-46.933L550.4 98.133c-6.4-12.8-21.333-23.466-36.267-23.466s-29.866 10.666-38.4 25.6L358.4 339.2 93.867 388.267c-17.067 2.133-27.734 12.8-34.134 29.866-4.266 14.934 0 34.134 12.8 44.8L262.4 640l-51.2 258.133c-2.133 14.934 4.267 32 17.067 42.667 6.4 4.267 14.933 8.533 23.466 8.533 6.4 0 12.8-2.133 19.2-4.266 2.134-2.134 243.2-121.6 243.2-121.6z" p-id="6345" fill="#515151"></path></svg>